# xmcd
# 
# Track frame offsets:
#     150
#     17651
#     46951
#     66578
#     87752
#     105481
#     130983
#     151627
#     169672
#     194047
#     216427
#     231521
#     257751
#     276132
#     304670
# 
# Disc length: 4271
# 
# Revision: 0
# Processed by: cddbd v1.5.2PL0 Copyright (c) Steve Scherf et al.
# Submitted via: fre:ac v1.0.31
# 
DISCID=d410ad0f
DTITLE=Various Artist - Bar Tokyo - Classic and New Japanese Flavours
DYEAR=2008
DGENRE=Electronic
TTITLE0=The Beaches - Wikiwiki
TTITLE1=Ryukyu Underground - Kuijin Nu Hana
TTITLE2=Chanchiki - Rasshoi!!
TTITLE3=Morio Agata - Submarine
TTITLE4=Wataru Kousaka - Jugo No Koi [Chocolate Mix]
TTITLE5=Yasuba Jun and An-Chang Project - Kumi Nu Shu
TTITLE6=Shabushabu - Shamisen Escalade
TTITLE7=Takuji Aka Geetek - Tinsagu Nu Hana
TTITLE8=Sarabandge - Sagichijuya
TTITLE9=Oki - Iutaphonic Dub
TTITLE10=Nami Makoika - Chyukari Asabana
TTITLE11=Sons Of Ailana - Tinsagu Nu Hana
TTITLE12=Gender Sanshin Trio - Kagiade Fu Fu
TTITLE13=Umeko Ando - Iuta Upopo
TTITLE14=Oki - Tonkori In The Moonlight
EXTD=
EXTT0=
EXTT1=
EXTT2=
EXTT3=
EXTT4=
EXTT5=
EXTT6=
EXTT7=
EXTT8=
EXTT9=
EXTT10=
EXTT11=
EXTT12=
EXTT13=
EXTT14=
PLAYORDER=
